<?xml version="1.0" encoding="UTF-8" standalone="no"?>
<!-- Created with Inkscape (http://www.inkscape.org/) -->

<svg
   width="512"
   height="512"
   viewBox="0 0 512 512"
   version="1.1"
   id="svg5"
   inkscape:version="1.2.2 (732a01da63, 2022-12-09)"
   sodipodi:docname="logo.svg"
   xml:space="preserve"
   inkscape:export-filename="LogoNegro.png"
   inkscape:export-xdpi="500"
   inkscape:export-ydpi="500"
   xmlns:inkscape="http://www.inkscape.org/namespaces/inkscape"
   xmlns:sodipodi="http://sodipodi.sourceforge.net/DTD/sodipodi-0.dtd"
   xmlns="http://www.w3.org/2000/svg"
   xmlns:svg="http://www.w3.org/2000/svg"><sodipodi:namedview
     id="namedview7"
     pagecolor="#505050"
     bordercolor="#ffffff"
     borderopacity="1"
     inkscape:showpageshadow="0"
     inkscape:pageopacity="0"
     inkscape:pagecheckerboard="1"
     inkscape:deskcolor="#505050"
     inkscape:document-units="px"
     showgrid="false"
     inkscape:zoom="0.65230355"
     inkscape:cx="42.924801"
     inkscape:cy="159.43497"
     inkscape:window-width="1920"
     inkscape:window-height="1017"
     inkscape:window-x="-8"
     inkscape:window-y="-8"
     inkscape:window-maximized="1"
     inkscape:current-layer="layer1" /><defs
     id="defs2" /><g
     inkscape:label="Capa 1"
     inkscape:groupmode="layer"
     id="layer1"
     style="fill:#000000"
     transform="matrix(1.2683672,0,0,1.2683672,-66.940669,-68.702003)"><path
       id="O"
       style="fill:#000000;stroke-width:0.804143"
       d="m 145.72844,95.101468 v 28.357422 l -0.002,0.004 0.002,0.002 v 125.91602 l 99.07422,57.20117 v -28.26172 l 0.0254,-0.0449 -0.0254,-0.0156 V 152.30264 Z m 25,42.796872 49.07422,28.33203 v 97.59571 l -49.07422,-28.33203 z"
       transform="matrix(1.0685138,0,0,1.0324211,-18.750776,2.5365833)" /><path
       id="G"
       style="fill:#000000;stroke-width:0.804143"
       d="M 444.66406,50.007812 267.96484,152.02539 v 28.86719 L 419.66797,93.306641 V 234.77539 l -6.32617,3.65234 -0.0371,-0.0644 -120.33594,69.47656 v -54.66796 l 72.26367,-41.72071 v -28.86719 l -97.1875,56.11133 0.0371,0.0645 -0.11328,0.0644 v 89.35742 h 0.0566 v 22.92578 l 11.50977,-6.64453 v 0.0859 l 165.1914,-95.37305 v -18.40625 l -0.0586,-0.10156 V 50.072266 l -0.004,0.002 z"
       transform="matrix(1.0685138,0,0,1.0324211,-18.750776,2.5365833)" /><path
       id="U"
       style="fill:#000000;stroke-width:0.980117"
       d="M 406,72.396484 381.04492,86.804688 V 340.66211 L 256,412.41602 130.95508,340.66211 V 87.009766 L 106,72.601562 V 354.95703 l 0.35352,0.20117 -0.0117,0.0195 149.25195,85.64649 0.0996,-0.0586 L 256.09961,441 405.6582,355.17773 405.64648,355.1582 406,354.95703 Z"
       transform="matrix(1.0685138,0,0,1.0324211,-18.750776,2.5365833)" /><path
       id="L"
       style="fill:#000000;stroke-width:0.804143"
       d="M 67,50.083984 V 230.66797 l -0.05859,0.10156 v 18.40625 l 165.1914,95.37305 v -0.0371 l 12.73047,7.34961 v -28.8672 L 93.066406,235.35352 93.050781,235.38086 92,234.77539 V 64.517578 Z"
       transform="matrix(1.0685138,0,0,1.0324211,-18.750776,2.5365833)" /></g></svg>
