<?xml version="1.0" encoding="UTF-8" standalone="no"?>
<!-- Created with Inkscape (http://www.inkscape.org/) -->

<svg
  width="512"
  height="512"
  viewBox="0 0 512 512"
  version="1.1"
  id="svg5"
  inkscape:version="1.2.2 (732a01da63, 2022-12-09)"
  sodipodi:docname="LUGO.svg"
  xml:space="preserve"
  inkscape:export-filename="LogoNegro.png"
  inkscape:export-xdpi="500"
  inkscape:export-ydpi="500"
  xmlns:inkscape="http://www.inkscape.org/namespaces/inkscape"
  xmlns:sodipodi="http://sodipodi.sourceforge.net/DTD/sodipodi-0.dtd"
  xmlns:xlink="http://www.w3.org/1999/xlink"
  xmlns="http://www.w3.org/2000/svg"
  xmlns:svg="http://www.w3.org/2000/svg"><sodipodi:namedview
     id="namedview7"
     pagecolor="#505050"
     bordercolor="#ffffff"
     borderopacity="1"
     inkscape:showpageshadow="0"
     inkscape:pageopacity="0"
     inkscape:pagecheckerboard="1"
     inkscape:deskcolor="#505050"
     inkscape:document-units="px"
     showgrid="false"
     inkscape:zoom="0.65230355"
     inkscape:cx="42.924801"
     inkscape:cy="157.90195"
     inkscape:window-width="1920"
     inkscape:window-height="1017"
     inkscape:window-x="-8"
     inkscape:window-y="-8"
     inkscape:window-maximized="1"
     inkscape:current-layer="layer1" /><defs
     id="defs2"><linearGradient
       inkscape:collect="always"
       id="linearGradient8906"><stop
         style="stop-color:#000000;stop-opacity:1;"
         offset="0"
         id="stop8902" /><stop
         style="stop-color:#000000;stop-opacity:0;"
         offset="1"
         id="stop8904" /></linearGradient><linearGradient
       inkscape:collect="always"
       id="linearGradient8898"><stop
         style="stop-color:#000000;stop-opacity:0;"
         offset="0"
         id="stop8894" /><stop
         style="stop-color:#000000;stop-opacity:1;"
         offset="1"
         id="stop8896" /></linearGradient><linearGradient
       inkscape:collect="always"
       xlink:href="#linearGradient8898"
       id="linearGradient8900"
       x1="100.39337"
       y1="139.34865"
       x2="170.96882"
       y2="139.34865"
       gradientUnits="userSpaceOnUse"
       gradientTransform="matrix(0.74404736,0,0,1,43.759921,0)" /><linearGradient
       inkscape:collect="always"
       xlink:href="#linearGradient8906"
       id="linearGradient8908"
       x1="206.66026"
       y1="139.39285"
       x2="278.20798"
       y2="139.39285"
       gradientUnits="userSpaceOnUse"
       gradientTransform="matrix(0.73393645,0,0,1,54.984764,0)" /></defs><g
     inkscape:groupmode="layer"
     id="layer3"
     inkscape:label="Capa 2"
     style="display:none"
     sodipodi:insensitive="true"><rect
       style="opacity:1;fill:#ffffff;stroke-width:3.32876"
       id="rect2314"
       width="512"
       height="512"
       x="-1.393103e-06"
       y="0"
       ry="0" /></g><g
     inkscape:label="Capa 1"
     inkscape:groupmode="layer"
     id="layer1"
     style="fill:#000000"
     transform="matrix(1.2683672,0,0,1.2683672,-66.940669,-68.702003)"><g
       id="g6573"
       transform="matrix(2.8565185,0,0,2.8565185,-283.81449,14.367953)"
       style="fill:#000000"><g
         id="Logo"
         style="fill:#000000"
         transform="matrix(0.24997417,0,0,0.24997417,125.02448,10.176504)"><path
           id="U"
           style="fill:#000000;stroke-width:0.980117"
           d="M 406,72.396484 381.04492,86.804688 V 340.66211 L 256,412.41602 130.95508,340.66211 V 87.009766 L 106,72.601562 V 354.95703 l 0.35352,0.20117 -0.0117,0.0195 149.25195,85.64649 0.0996,-0.0586 L 256.09961,441 405.6582,355.17773 405.64648,355.1582 406,354.95703 Z" /><path
           id="L"
           style="fill:#000000;stroke-width:0.804143"
           d="M 67,50.083984 V 230.66797 l -0.05859,0.10156 v 18.40625 l 165.1914,95.37305 v -0.0371 l 12.73047,7.34961 v -28.8672 L 93.066406,235.35352 93.050781,235.38086 92,234.77539 V 64.517578 Z" /><path
           id="G"
           style="fill:#000000;stroke-width:0.804143"
           d="M 444.66406,50.007812 267.96484,152.02539 v 28.86719 L 419.66797,93.306641 V 234.77539 l -6.32617,3.65234 -0.0371,-0.0644 -120.33594,69.47656 v -54.66796 l 72.26367,-41.72071 v -28.86719 l -97.1875,56.11133 0.0371,0.0645 -0.11328,0.0644 v 89.35742 h 0.0566 v 22.92578 l 11.50977,-6.64453 v 0.0859 l 165.1914,-95.37305 v -18.40625 l -0.0586,-0.10156 V 50.072266 l -0.004,0.002 z" /><path
           id="O"
           style="fill:#000000;stroke-width:0.804143"
           d="m 145.72844,95.101468 v 28.357422 l -0.002,0.004 0.002,0.002 v 125.91602 l 99.07422,57.20117 v -28.26172 l 0.0254,-0.0449 -0.0254,-0.0156 V 152.30264 Z m 25,42.796872 49.07422,28.33203 v 97.59571 l -49.07422,-28.33203 z" /></g><g
         id="g1015"
         transform="translate(-0.32430774)"
         style="fill:#000000"><rect
           style="opacity:0.353312;fill:url(#linearGradient8900);fill-opacity:1;stroke-width:0.621134"
           id="rect2774"
           width="52.511475"
           height="0.86838335"
           x="118.45734"
           y="138.91446"
           inkscape:label="SeparadorI" /><rect
           style="opacity:0.353312;fill:url(#linearGradient8908);fill-opacity:1;stroke-width:0.651979"
           id="rect2774-8"
           width="52.511475"
           height="0.95677167"
           x="206.66026"
           y="138.91446"
           inkscape:label="SeparadorD" /><text
           xml:space="preserve"
           style="font-size:18.6667px;font-family:'MS Gothic';-inkscape-font-specification:'MS Gothic';text-align:center;text-anchor:middle;opacity:1;fill:#000000"
           x="188.90344"
           y="146.64807"
           id="text937"
           inkscape:label="DMF"><tspan
             sodipodi:role="line"
             id="tspan935"
             x="188.90344"
             y="146.64807">DMF</tspan></text></g></g></g></svg>